<?xml version="1.0" encoding="UTF-8"?>
<svg width="300" height="300" viewBox="0 0 300 300" fill="none" xmlns="http://www.w3.org/2000/svg">
  <!-- Background -->
  <circle cx="150" cy="150" r="150" fill="#2ECC71" opacity="0.1"/>
  
  <!-- Head -->
  <circle cx="150" cy="115" r="85" fill="#FFEAA7"/>
  
  <!-- Hair -->
  <path d="M230 115C230 153.66 198.66 185 160 185C121.34 185 90 153.66 90 115C90 76.3401 121.34 45 160 45C198.66 45 230 76.3401 230 115Z" fill="#FF9FF3"/>
  <path d="M90 90C90 90 90 50 120 40C150 30 190 40 190 40C190 40 220 60 225 100C230 140 210 160 210 160H180C180 160 190 140 190 130C190 120 185 115 175 115C165 115 160 125 160 125C160 125 155 115 145 115C135 115 130 120 130 130C130 140 140 160 140 160H100C100 160 80 135 90 90Z" fill="#F78FB3"/>
  
  <!-- Robot Ear Parts -->
  <circle cx="70" cy="115" r="12" fill="#95A5A6" stroke="#7F8C8D" stroke-width="2"/>
  <circle cx="70" cy="115" r="5" fill="#E74C3C"/>
  <rect x="58" y="110" width="5" height="10" fill="#95A5A6"/>
  
  <circle cx="230" cy="115" r="12" fill="#95A5A6" stroke="#7F8C8D" stroke-width="2"/>
  <circle cx="230" cy="115" r="5" fill="#E74C3C"/>
  <rect x="237" y="110" width="5" height="10" fill="#95A5A6"/>
  
  <!-- Eyes -->
  <circle cx="130" cy="105" r="15" fill="white" stroke="#7F8C8D" stroke-width="2"/>
  <circle cx="130" cy="105" r="8" fill="#16A085"/>
  <circle cx="133" cy="102" r="3" fill="white"/>
  
  <circle cx="170" cy="105" r="15" fill="white" stroke="#7F8C8D" stroke-width="2"/>
  <circle cx="170" cy="105" r="8" fill="#16A085"/>
  <circle cx="173" cy="102" r="3" fill="white"/>
  
  <!-- Eyebrows -->
  <path d="M115 85C115 85 125 80 140 85" stroke="#E74C3C" stroke-width="3" stroke-linecap="round"/>
  <path d="M160 85C160 85 170 80 185 85" stroke="#E74C3C" stroke-width="3" stroke-linecap="round"/>
  
  <!-- Nose -->
  <path d="M150 120L145 135L155 135" fill="#FFEAA7"/>
  <path d="M145 135L155 135" stroke="#E67E22" stroke-width="2" stroke-linecap="round"/>
  
  <!-- Mouth -->
  <path d="M130 145C130 145 145 165 170 145" stroke="#E74C3C" stroke-width="3" stroke-linecap="round"/>
  
  <!-- Blush -->
  <circle cx="115" cy="135" r="10" fill="#E74C3C" opacity="0.2"/>
  <circle cx="185" cy="135" r="10" fill="#E74C3C" opacity="0.2"/>
  
  <!-- Body/Outfit -->
  <path d="M95 190C95 190 120 160 150 160C180 160 205 190 205 190V250H95V190Z" fill="#2ECC71"/>
  
  <!-- Neck Tech Piece -->
  <rect x="135" y="160" width="30" height="10" rx="5" fill="#3498DB"/>
  <circle cx="150" cy="165" r="3" fill="#E74C3C"/>
  
  <!-- Center Screen -->
  <rect x="125" y="175" width="50" height="40" rx="5" fill="#ECF0F1" stroke="#7F8C8D" stroke-width="2"/>
  <rect x="130" y="180" width="40" height="25" rx="2" fill="#3498DB"/>
  <path d="M140 192.5L150 202.5L160 192.5" stroke="white" stroke-width="2" stroke-linecap="round" stroke-linejoin="round"/>
  <path d="M140 187.5L150 197.5L160 187.5" stroke="white" stroke-width="2" stroke-linecap="round" stroke-linejoin="round"/>
  
  <!-- Arms/Hands -->
  <path d="M100 195C100 195 90 200 85 220C80 240 95 240 95 240L105 220" fill="#2ECC71"/>
  <circle cx="90" cy="240" r="10" fill="#FFEAA7"/>
  
  <path d="M200 195C200 195 210 200 215 220C220 240 205 240 205 240L195 220" fill="#2ECC71"/>
  <circle cx="210" cy="240" r="10" fill="#FFEAA7"/>
  
  <!-- Tech Wristband -->
  <rect x="80" y="235" width="20" height="10" rx="5" fill="#3498DB"/>
  <circle cx="90" cy="240" r="3" fill="#E74C3C"/>
  
  <rect x="200" y="235" width="20" height="10" rx="5" fill="#3498DB"/>
  <circle cx="210" cy="240" r="3" fill="#E74C3C"/>
</svg> 